<svg width="900" height="230" viewBox="0 0 900 230" xmlns="http://www.w3.org/2000/svg">
  <defs>
    <linearGradient id="bg2" x1="0" y1="0" x2="900" y2="230" gradientUnits="userSpaceOnUse">
      <stop offset="0%" stop-color="#14101f"/>
      <stop offset="100%" stop-color="#0d0b14"/>
    </linearGradient>
  </defs>
  <rect width="900" height="230" rx="14" fill="url(#bg2)"/>

  <text x="32" y="38" font-family="Consolas, 'Courier New', monospace" font-size="13" fill="#a89fd6" letter-spacing="2">TECH STACK</text>
  <rect x="32" y="48" width="40" height="3" rx="1.5" fill="#EC4899"/>

  <!-- row 1: languages -->
  <g font-family="Segoe UI, Arial, sans-serif" font-size="13.5" font-weight="600">
    <g transform="translate(32,68)"><rect width="76" height="34" rx="17" fill="#241a3d"/><circle cx="20" cy="17" r="5" fill="#3B82F6"/><text x="34" y="22" fill="#cfc9ea">Python</text></g>
    <g transform="translate(118,68)"><rect width="66" height="34" rx="17" fill="#241a3d"/><circle cx="20" cy="17" r="5" fill="#F59E0B"/><text x="34" y="22" fill="#cfc9ea">Java</text></g>
    <g transform="translate(194,68)"><rect width="58" height="34" rx="17" fill="#241a3d"/><circle cx="20" cy="17" r="5" fill="#10B981"/><text x="34" y="22" fill="#cfc9ea">SQL</text></g>
    <g transform="translate(262,68)"><rect width="102" height="34" rx="17" fill="#241a3d"/><circle cx="20" cy="17" r="5" fill="#EAB308"/><text x="34" y="22" fill="#cfc9ea">JavaScript</text></g>
  </g>

  <!-- row 2: web -->
  <g font-family="Segoe UI, Arial, sans-serif" font-size="13.5" font-weight="600">
    <g transform="translate(32,114)"><rect width="66" height="34" rx="17" fill="#241a3d"/><circle cx="20" cy="17" r="5" fill="#06B6D4"/><text x="34" y="22" fill="#cfc9ea">React</text></g>
    <g transform="translate(108,114)"><rect width="66" height="34" rx="17" fill="#241a3d"/><circle cx="20" cy="17" r="5" fill="#EC4899"/><text x="34" y="22" fill="#cfc9ea">HTML</text></g>
    <g transform="translate(184,114)"><rect width="58" height="34" rx="17" fill="#241a3d"/><circle cx="20" cy="17" r="5" fill="#8B5CF6"/><text x="34" y="22" fill="#cfc9ea">CSS</text></g>
    <g transform="translate(252,114)"><rect width="150" height="34" rx="17" fill="#241a3d"/><circle cx="20" cy="17" r="5" fill="#3B82F6"/><text x="34" y="22" fill="#cfc9ea">Node.js / Express</text></g>
  </g>

  <!-- row 3: tools -->
  <g font-family="Segoe UI, Arial, sans-serif" font-size="13.5" font-weight="600">
    <g transform="translate(32,160)"><rect width="56" height="34" rx="17" fill="#241a3d"/><circle cx="20" cy="17" r="5" fill="#F59E0B"/><text x="34" y="22" fill="#cfc9ea">Git</text></g>
    <g transform="translate(106,160)"><rect width="86" height="34" rx="17" fill="#241a3d"/><circle cx="20" cy="17" r="5" fill="#cfc9ea"/><text x="34" y="22" fill="#cfc9ea">GitHub</text></g>
    <g transform="translate(210,160)"><rect width="100" height="34" rx="17" fill="#241a3d"/><circle cx="20" cy="17" r="5" fill="#10B981"/><text x="34" y="22" fill="#cfc9ea">MongoDB</text></g>
    <g transform="translate(328,160)"><rect width="72" height="34" rx="17" fill="#241a3d"/><circle cx="20" cy="17" r="5" fill="#EAB308"/><text x="34" y="22" fill="#cfc9ea">Linux</text></g>
  </g>
</svg>
